# xmcd CD database file
#
# Track frame offsets:
#	222
#	22675
#	38317
#	52932
#	65250
#	90682
#	126425
#	143827
#	153080
#	170782
#	190865
#	209032
#
# Disc length: 3132 seconds
#
# Revision: 4
# Processed by: cddbd v1.5.2PL0 Copyright (c) Steve Scherf et al.
# Submitted via: CDex 1.79
#
DISCID=9a0c3a0c
DTITLE=Byron Berline - Fiddle and A Song
DYEAR=1995
DGENRE=Bluegrass
TTITLE0=Sally Goodin (featuring Bill Monroe and Earl Scruggs)
TTITLE1=Rose Of Old Kentucky (featuring Vince Gill)
TTITLE2=My Dixie Darling (featuring Rick Cunha)
TTITLE3=Roly Poly (featuring The Doo Wah Riders)
TTITLE4=Faded Love ((featuring California)
TTITLE5=Skippin' Along On Top (featuring Mason Williams)
TTITLE6=Sweet Memory Waltz (featuring Vince Gil)l
TTITLE7=Fiddle Faddle (featuring California)
TTITLE8=Second Fiddle (featuring Jann Browne)
TTITLE9=Fiddler's Dream (featuring Sundance)
TTITLE10=Were You There (featuring Sherman Oaks Presbyterian Church Quartet)
TTITLE11=Cajun Medley (featuring The Doo Wah Riders)
EXTD=YEAR: 1995
EXTT0=
EXTT1=
EXTT2=
EXTT3=
EXTT4=
EXTT5=
EXTT6=
EXTT7=
EXTT8=
EXTT9=
EXTT10=
EXTT11=
PLAYORDER=
